<?xml version="1.0" encoding="UTF-8" standalone="no"?>
<svg
        xmlns="http://www.w3.org/2000/svg"
        xmlns:xlink="http://www.w3.org/1999/xlink"
        id="Layer_1"
        style="enable-background:new 0 0 30 30;"
        version="1.1"
        viewBox="0 0 30 30"
        xml:space="preserve">
    <defs
            id="defs23"><linearGradient
       id="linearGradient2977"><stop
         style="stop-color:#ffff00;stop-opacity:1;"
         offset="0"
         id="stop2975" /></linearGradient>
        <linearGradient
                id="linearGradient921"><stop
         style="stop-color:#ff0000;stop-opacity:1"
         offset="0"
         id="stop917" />
            <stop
                    style="stop-color:#f5d14c;stop-opacity:0.67845659"
                    offset="1"
                    id="stop919"/></linearGradient>
        <linearGradient
                xlink:href="#linearGradient921"
                id="linearGradient925"
                x1="15.849521"
                y1="23.586033"
                x2="15.812155"
                y2="28.675997"
                gradientUnits="userSpaceOnUse"
                gradientTransform="matrix(1,0,0,1.4332425,0,-12.42366)"/></defs>

    <path
            d="m 17.754173,22.288766 c 0.01903,0.09717 0.06661,0.187313 0.06526,0.289792 -0.0058,1.737726 -1.99559,2.602401 -1.99559,2.602401 0,0 -1.98499,-0.873945 -1.978162,-2.61256 3.46e-4,-0.103366 0.04853,-0.191473 0.06719,-0.289452 l -0.932299,-0.0033 c -0.286726,0.427018 -0.4626,0.917593 -0.464369,1.446931 -0.0081,2.4346 3.295952,4.953415 3.295952,4.953415 0,0 3.32076,-2.469798 3.329004,-4.93648 0.0017,-0.529336 -0.170823,-1.020802 -0.454689,-1.449279 z"
            id="path18"
            style="mix-blend-mode:normal;fill:url(#linearGradient925);fill-opacity:1;stroke-width:1.34759"/>
    <g
            id="g3023"><polygon
       points="16,22 11,22 8,19 8,14 "
       id="polygon10"
       transform="matrix(1.0050987,-0.66712551,0.99924015,0.67103686,-14.235321,13.920544)"
       style="fill:#000080" />
        <path
                d="m 23.503682,14.429761 c 0,0 4.617858,1.89034 4.607824,3.772425 -0.01354,2.822819 -3.111287,5.640759 -3.111287,5.640759 L 18.910582,18.85791 Z"
                id="path14"
                style="stroke-width:1.12564;fill:#000080"/>
        <path
                d="m 8.2465167,14.402548 c 0,0 -4.6358877,1.873833 -4.6438837,3.755922 -0.013516,2.822819 3.0571969,5.651762 3.0571969,5.651762 l 6.1372881,-4.963227 z"
                id="path16"
                style="stroke-width:1.12564;fill:#000080"/>
        <path
                d="M 21.474553,4.3297687 C 22.67664,4.0854695 23.483681,3.7861197 23.888962,3.435589 a 0.93446969,0.79731232 2.3420926e-6 0 0 0.305745,-0.5707775 c -0.0048,-0.604277 -0.927586,-1.0863832 -2.742994,-1.433048 a 28.242213,24.096945 2.3420926e-6 0 0 -6.0633,-0.46047643 C 11.854504,0.9917881 6.6009439,1.5411756 6.6127426,2.9668874 c 0.01137,1.426834 5.2727544,1.914102 8.8066634,1.8936008 a 28.241236,24.096111 2.3420926e-6 0 0 6.055147,-0.5307195 z"
                id="path29"
                style="stroke-width:0.300756;fill:#000080;fill-opacity:1"/>
        <path
                d="M 21.62572,4.8719844 C 19.587641,5.2422718 17.508879,5.4249053 15.425128,5.4167488 13.461377,5.4357759 11.499908,5.2965331 9.5668432,5.0008744 8.3011222,4.786234 7.3709811,4.5002362 6.7764199,4.1428809 L 7.0616752,6.1351457 C 6.4755976,6.2284532 5.9026192,6.3739972 5.3521596,6.5693848 2.050653,7.7397071 0.18842602,10.390735 1.2020473,12.484854 c 0.7327142,1.514272 2.7956794,2.384344 5.2555808,2.214881 0.6077535,-0.03974 1.2080576,-0.139471 1.7888889,-0.297187 l 0.1169275,0.804747 c 0.2029374,1.408178 1.8316415,4.071803 3.5775655,3.695887 l 7.740191,-0.355473 c 1.663755,-0.0082 3.644339,-2.70653 3.822481,-4.117949 L 24.048192,4.0505409 C 23.308395,4.4518394 22.486547,4.730522 21.62572,4.8719844 Z m -7.726562,3.2095572 c 0.375928,0.7800408 -0.0573,1.6726646 -0.969502,1.9975794 -0.06659,0.022 -0.135569,0.03418 -0.202194,0.05225 -0.491787,1.849439 -2.526739,3.136803 -4.5614128,3.707847 l 3.12e-5,0.0039 C 7.5961003,14.003791 7.0055698,14.1055 6.4071682,14.146053 4.2349109,14.296166 2.428579,13.560153 1.8035856,12.273133 0.92575065,10.461107 2.6317032,8.1351202 5.6003026,7.0826319 6.0962641,6.9066148 6.612133,6.7745988 7.1397625,6.6886684 l 0.9458188,6.5872166 c 1.5658803,-0.430027 3.4529277,-1.56415 3.9584317,-3.099297 -0.166335,-0.01232 -0.329574,-0.0458 -0.484292,-0.09934 C 11.119259,9.9245104 10.769257,9.6271008 10.588443,9.2519172 9.6730817,7.3684809 12.983797,6.1981053 13.899158,8.0815416 Z"
                id="path31"
                style="stroke-width:0.300756;fill:#000080"
        />
        <path
                d="m 11.807871,7.7685764 a 1.1393367,0.97210983 2.3420926e-6 0 0 -0.616728,1.2700998 1.1209403,0.95641365 2.3420927e-6 0 0 0.964753,0.5931096 2.4446963,2.0858746 2.3420927e-6 0 0 -0.172189,-0.958381 0.32561895,0.27782603 2.3420926e-6 0 1 0.601319,-0.2133509 3.0651908,2.6152955 2.3420926e-6 0 1 0.230101,1.0431059 1.1368621,0.96999849 2.3420927e-6 0 0 -1.007303,-1.7346225 z"
                id="path33"
                style="stroke-width:0.300756;fill:#000080"/></g></svg>
